<svg width="241" height="108" viewBox="0 0 241 108" fill="none" xmlns="http://www.w3.org/2000/svg">
<path d="M101.31 0.891602L45.2745 51.1407L105.726 107.481H78.4693L28.8293 61.6473H20.9113V107.481H0.050293V0.891602H20.9113V42.7658H28.677L74.5103 0.891602H101.31Z" fill="white"/>
<path d="M230.847 10.7871C224.499 4.43857 216.094 0.96871 207.124 0.96871C198.153 0.96871 189.723 4.46427 183.374 10.8128L180.059 14.1285L176.692 10.7614C170.343 4.41286 161.887 0.891602 152.917 0.891602C143.972 0.891602 135.542 4.38716 129.219 10.71C122.87 17.0586 119.375 25.489 119.401 34.4593C119.401 43.4295 122.922 51.8342 129.27 58.1828L177.54 106.452C178.208 107.121 179.108 107.48 179.982 107.48C180.856 107.48 181.755 107.146 182.423 106.478L230.796 58.2856C237.144 51.9371 240.64 43.5066 240.64 34.5364C240.666 25.5661 237.196 17.1357 230.847 10.7871Z" fill="white"/>
</svg>
