<svg width="1158" height="110" viewBox="0 0 1158 110" fill="none" xmlns="http://www.w3.org/2000/svg">
<path d="M1126.53 30.5388H1157.44V48.3543H1126.53V75.6107C1126.53 85.3559 1130.03 88.8581 1140.38 88.8581H1157.44V106.674H1138.25C1114.95 106.674 1106.73 96.9284 1106.73 75.6107V48.3543H1094.09V34.3455L1106.73 30.5388V13.7891H1126.53V30.5388Z" fill="white"/>
<path d="M1047.39 109.11C1021.81 109.11 1006.89 100.126 1003.99 82.9197H1023.79C1026.22 90.8378 1034.14 94.949 1047.24 94.949C1058.05 94.949 1065.36 90.5332 1065.36 84.1379C1065.36 77.8948 1062.47 75.9153 1051.81 74.8494L1033.99 73.0222C1014.5 71.0427 1006.13 64.9519 1006.13 52.9225C1006.13 38.0001 1020.9 28.1025 1043.58 28.1025C1067.49 28.1025 1082.26 36.7819 1083.78 51.7044H1063.99C1062.01 45.6136 1053.94 41.9591 1042.67 41.9591C1032.62 41.9591 1025.92 46.2227 1025.92 52.3135C1025.92 57.0338 1028.66 58.8611 1036.58 59.7747L1053.94 61.4497C1078.3 64.0382 1085.15 69.0632 1085.15 84.4424C1085.15 99.3649 1069.93 109.11 1047.39 109.11Z" fill="white"/>
<path d="M956.15 28.1025C979.447 28.1025 991.019 39.6751 991.019 63.2769V106.674H971.224V64.3428C971.224 51.3998 965.438 45.9181 951.429 45.9181C936.05 45.9181 929.198 52.7703 929.198 67.5405V106.674H909.403V30.5389L927.066 29.3207L928.893 41.8068C933.005 33.432 943.359 28.1025 956.15 28.1025Z" fill="white"/>
<path d="M895.506 30.5391V48.3546H873.427C863.072 48.3546 859.57 51.8569 859.57 61.6021V106.674H839.775V61.6021C839.775 40.2843 848.15 30.5391 871.295 30.5391H895.506Z" fill="white"/>
<path d="M823.283 88.097V106.674H731.617V0.0849609H823.283V18.6619H752.478V42.5683H818.715V61.1452H752.478V88.097H823.283Z" fill="white"/>
<path d="M616.099 109.11C594.629 109.11 582.143 99.2126 582.143 83.9856C582.143 70.5859 588.842 64.3428 610.16 62.6678L639.244 60.536C643.66 60.2315 644.878 59.3179 644.878 55.5111C644.878 47.1363 638.939 43.6341 625.083 43.6341C611.683 43.6341 606.049 46.6795 604.526 54.1407H584.883C586.102 36.4774 598.74 28.1025 624.626 28.1025C652.187 28.1025 664.673 37.2387 664.673 57.4906V106.674L648.075 107.892L646.096 94.0354C643.507 103.628 632.696 109.11 616.099 109.11ZM619.601 94.34C636.198 94.34 644.878 87.1833 644.878 73.3267V70.2813C643.507 71.3472 641.528 71.804 637.569 72.1086L612.597 73.9358C605.44 74.3926 601.938 77.2857 601.938 82.6152C601.938 90.0764 608.181 94.34 619.601 94.34Z" fill="white"/>
<path d="M533.69 28.1025C556.987 28.1025 568.56 39.6751 568.56 63.2769V106.674H548.764V64.3428C548.764 51.3998 542.978 45.9181 528.969 45.9181C513.59 45.9181 506.738 52.7703 506.738 67.5405V106.674H486.943V30.5389L504.606 29.3207L506.433 41.8068C510.545 33.432 520.899 28.1025 533.69 28.1025Z" fill="white"/>
<path d="M468.713 19.4232H445.264V2.06445H468.713V19.4232ZM466.886 30.5389V106.674H447.091V30.5389H466.886Z" fill="white"/>
<path d="M433.194 30.5391V48.3546H411.115C400.761 48.3546 397.258 51.8569 397.258 61.6021V106.674H377.463V61.6021C377.463 40.2843 385.838 30.5391 408.983 30.5391H433.194Z" fill="white"/>
<path d="M363.965 67.2359C363.965 69.52 363.812 71.6517 363.508 73.1744H296.814C297.423 87.1833 305.95 94.949 320.872 94.949C332.445 94.949 340.211 90.6855 342.799 82.9197H362.594C357.113 100.126 343.104 109.11 321.938 109.11C292.093 109.11 277.019 95.5581 277.019 68.6063C277.019 41.6546 291.636 28.1025 320.872 28.1025C349.347 28.1025 363.965 41.35 363.965 67.2359ZM321.025 41.6546C306.407 41.6546 298.641 47.7454 297.118 60.536H344.017C342.647 47.8976 335.033 41.6546 321.025 41.6546Z" fill="white"/>
<path d="M235.062 30.5388H265.973V48.3543H235.062V75.6107C235.062 85.3559 238.565 88.8581 248.919 88.8581H265.973V106.674H246.787C223.49 106.674 215.267 96.9284 215.267 75.6107V48.3543H202.629V34.3455L215.267 30.5388V13.7891H235.062V30.5388Z" fill="white"/>
<path d="M141.594 109.11C120.124 109.11 107.637 99.2126 107.637 83.9856C107.637 70.5859 114.337 64.3428 135.655 62.6678L164.739 60.536C169.154 60.2315 170.373 59.3179 170.373 55.5111C170.373 47.1363 164.434 43.6341 150.578 43.6341C137.178 43.6341 131.544 46.6795 130.021 54.1407H110.378C111.596 36.4774 124.235 28.1025 150.121 28.1025C177.682 28.1025 190.168 37.2387 190.168 57.4906V106.674L173.57 107.892L171.591 94.0354C169.002 103.628 158.191 109.11 141.594 109.11ZM145.096 94.34C161.693 94.34 170.373 87.1833 170.373 73.3267V70.2813C169.002 71.3472 167.023 71.804 163.064 72.1086L138.091 73.9358C130.935 74.3926 127.433 77.2857 127.433 82.6152C127.433 90.0764 133.676 94.34 145.096 94.34Z" fill="white"/>
<path d="M101.564 0.0849609L45.5291 50.334L105.98 106.674H78.7239L29.084 60.8407H21.1659V106.674H0.304932V0.0849609H21.1659V41.9592H28.9317L74.7649 0.0849609H101.564Z" fill="white"/>
</svg>
