<svg width="1158" height="110" viewBox="0 0 1158 110" fill="none" xmlns="http://www.w3.org/2000/svg">
<path d="M1126.39 30.6667H1157.3V48.4823H1126.39V75.7386C1126.39 85.4839 1129.89 88.9861 1140.24 88.9861H1157.3V106.802H1138.11C1114.81 106.802 1106.59 97.0564 1106.59 75.7386V48.4823H1093.95V34.4734L1106.59 30.6667V13.917H1126.39V30.6667Z" fill="white"/>
<path d="M1047.25 109.238C1021.67 109.238 1006.75 100.254 1003.85 83.0477H1023.65C1026.09 90.9657 1034 95.077 1047.1 95.077C1057.91 95.077 1065.22 90.6611 1065.22 84.2658C1065.22 78.0227 1062.33 76.0432 1051.67 74.9773L1033.85 73.1501C1014.36 71.1706 1005.99 65.0798 1005.99 53.0505C1005.99 38.128 1020.76 28.2305 1043.44 28.2305C1067.35 28.2305 1082.12 36.9099 1083.64 51.8323H1063.85C1061.87 45.7415 1053.8 42.087 1042.53 42.087C1032.48 42.087 1025.78 46.3506 1025.78 52.4414C1025.78 57.1618 1028.52 58.989 1036.44 59.9026L1053.8 61.5776C1078.16 64.1662 1085.01 69.1911 1085.01 84.5703C1085.01 99.4928 1069.79 109.238 1047.25 109.238Z" fill="white"/>
<path d="M956.011 28.2305C979.308 28.2305 990.88 39.803 990.88 63.4048V106.802H971.085V64.4707C971.085 51.5278 965.299 46.0461 951.29 46.0461C935.911 46.0461 929.059 52.8982 929.059 67.6684V106.802H909.264V30.6668L926.927 29.4486L928.754 41.9348C932.865 33.5599 943.22 28.2305 956.011 28.2305Z" fill="white"/>
<path d="M895.366 30.667V48.4826H873.287C862.933 48.4826 859.431 51.9848 859.431 61.7301V106.802H839.636V61.7301C839.636 40.4123 848.011 30.667 871.156 30.667H895.366Z" fill="white"/>
<path d="M823.144 88.2249V106.802H731.478V0.212891H823.144V18.7898H752.338V42.6962H818.576V61.2731H752.338V88.2249H823.144Z" fill="white"/>
<path d="M615.959 109.238C594.489 109.238 582.003 99.3405 582.003 84.1135C582.003 70.7138 588.703 64.4707 610.021 62.7957L639.104 60.664C643.52 60.3594 644.738 59.4458 644.738 55.6391C644.738 47.2642 638.8 43.762 624.943 43.762C611.544 43.762 605.91 46.8074 604.387 54.2686H584.744C585.962 36.6053 598.601 28.2305 624.486 28.2305C652.047 28.2305 664.533 37.3667 664.533 57.6186V106.802L647.936 108.02L645.957 94.1634C643.368 103.756 632.557 109.238 615.959 109.238ZM619.462 94.4679C636.059 94.4679 644.738 87.3112 644.738 73.4546V70.4092C643.368 71.4751 641.388 71.9319 637.429 72.2365L612.457 74.0637C605.3 74.5205 601.798 77.4137 601.798 82.7431C601.798 90.2043 608.041 94.4679 619.462 94.4679Z" fill="white"/>
<path d="M533.55 28.2305C556.848 28.2305 568.42 39.803 568.42 63.4048V106.802H548.625V64.4707C548.625 51.5278 542.839 46.0461 528.83 46.0461C513.451 46.0461 506.599 52.8982 506.599 67.6684V106.802H486.803V30.6668L504.467 29.4486L506.294 41.9348C510.405 33.5599 520.76 28.2305 533.55 28.2305Z" fill="white"/>
<path d="M468.574 19.5512H445.125V2.19238H468.574V19.5512ZM466.747 30.6669V106.802H446.952V30.6669H466.747Z" fill="white"/>
<path d="M433.055 30.667V48.4826H410.976C400.621 48.4826 397.119 51.9848 397.119 61.7301V106.802H377.324V61.7301C377.324 40.4123 385.699 30.667 408.844 30.667H433.055Z" fill="white"/>
<path d="M363.826 67.3638C363.826 69.6479 363.673 71.7797 363.369 73.3024H296.674C297.284 87.3112 305.811 95.077 320.733 95.077C332.306 95.077 340.071 90.8134 342.66 83.0477H362.455C356.973 100.254 342.965 109.238 321.799 109.238C291.954 109.238 276.879 95.6861 276.879 68.7343C276.879 41.7825 291.497 28.2305 320.733 28.2305C349.208 28.2305 363.826 41.478 363.826 67.3638ZM320.885 41.7825C306.267 41.7825 298.502 47.8733 296.979 60.664H343.878C342.508 48.0256 334.894 41.7825 320.885 41.7825Z" fill="white"/>
<path d="M234.923 30.6667H265.834V48.4823H234.923V75.7386C234.923 85.4839 238.425 88.9861 248.78 88.9861H265.834V106.802H246.648C223.35 106.802 215.128 97.0564 215.128 75.7386V48.4823H202.49V34.4734L215.128 30.6667V13.917H234.923V30.6667Z" fill="white"/>
<path d="M141.454 109.238C119.984 109.238 107.498 99.3405 107.498 84.1135C107.498 70.7138 114.198 64.4707 135.516 62.7957L164.599 60.664C169.015 60.3594 170.233 59.4458 170.233 55.6391C170.233 47.2642 164.295 43.762 150.438 43.762C137.038 43.762 131.404 46.8074 129.882 54.2686H110.239C111.457 36.6053 124.095 28.2305 149.981 28.2305C177.542 28.2305 190.028 37.3667 190.028 57.6186V106.802L173.431 108.02L171.451 94.1634C168.863 103.756 158.052 109.238 141.454 109.238ZM144.956 94.4679C161.554 94.4679 170.233 87.3112 170.233 73.4546V70.4092C168.863 71.4751 166.883 71.9319 162.924 72.2365L137.952 74.0637C130.795 74.5205 127.293 77.4137 127.293 82.7431C127.293 90.2043 133.536 94.4679 144.956 94.4679Z" fill="white"/>
<path d="M101.425 0.212891L45.3897 50.462L105.841 106.802H78.5845L28.9445 60.9686H21.0265V106.802H0.165527V0.212891H21.0265V42.0871H28.7923L74.6255 0.212891H101.425Z" fill="white"/>
</svg>
