<svg width="241" height="108" viewBox="0 0 241 108" fill="none" xmlns="http://www.w3.org/2000/svg">
<path d="M139.381 0.543945L195.416 50.793L134.965 107.133H162.221L211.861 61.2996H219.779V107.133H240.64V0.543945H219.779V42.4182H212.013L166.18 0.543945H139.381Z" fill="white"/>
<path d="M9.84323 10.4395C16.1918 4.09091 24.5966 0.621054 33.5668 0.621054C42.537 0.621054 50.9675 4.11661 57.316 10.4652L60.6317 13.7808L63.9987 10.4138C70.3473 4.06521 78.8034 0.543945 87.7736 0.543945C96.7182 0.543945 105.149 4.0395 111.471 10.3624C117.82 16.7109 121.316 25.1414 121.29 34.1116C121.29 43.0818 117.769 51.4866 111.42 57.8351L63.1505 106.105C62.4822 106.773 61.5827 107.133 60.7088 107.133C59.8349 107.133 58.9353 106.799 58.267 106.13L9.89464 57.938C3.54608 51.5894 0.0505291 43.1589 0.0505291 34.1887C0.0248264 25.2185 3.49468 16.788 9.84323 10.4395Z" fill="white"/>
</svg>
